<svg width="150" height="150" viewBox="0 0 150 150" fill="none" xmlns="http://www.w3.org/2000/svg">
<path d="M75 150C116.421 150 150 116.421 150 75C150 33.5786 116.421 0 75 0C33.5786 0 0 33.5786 0 75C0 116.421 33.5786 150 75 150Z" fill="#FFA037"/>
<path d="M74.9999 125.893C103.107 125.893 125.893 103.107 125.893 75C125.893 46.8927 103.107 24.1072 74.9999 24.1072C46.8926 24.1072 24.1072 46.8927 24.1072 75C24.1072 103.107 46.8926 125.893 74.9999 125.893Z" fill="#FFC850"/>
<path d="M34.8214 75C34.8214 39.5751 59.3892 9.90703 92.4106 2.05371C86.821 0.724219 80.9962 0 75 0C33.5786 0 0 33.5786 0 75C0 116.421 33.5786 150 75 150C80.9968 150 86.821 149.276 92.4108 147.947C59.3892 140.093 34.8214 110.424 34.8214 75Z" fill="#FF8C32"/>
<path d="M48.8885 118.625C40.0634 106.33 34.8213 91.2914 34.8213 75C34.8213 58.7086 40.0634 43.6702 48.8882 31.3755C34.062 40.27 24.1072 56.4519 24.1072 75C24.1072 93.5481 34.062 109.73 48.8885 118.625Z" fill="#FFB23C"/>
<path d="M126.133 42.6164C125.087 41.5702 123.392 41.5702 122.346 42.6164L107.055 57.9061C105.934 59.027 104.116 59.027 102.995 57.9061L102.619 57.5303C101.498 56.4094 101.498 54.5915 102.619 53.4706L117.864 38.226C118.91 37.1798 118.91 35.4847 117.864 34.4385C116.817 33.3923 115.122 33.3923 114.076 34.4385L98.8313 49.6831C97.7104 50.804 95.8925 50.804 94.7716 49.6831C93.6507 48.5622 93.6507 46.7443 94.7716 45.6234L110.062 30.3334C111.108 29.2872 111.108 27.5921 110.062 26.5459C109.016 25.4997 107.32 25.4997 106.274 26.5459L89.9385 42.8801C87.404 45.4134 85.9075 48.6387 85.8317 51.7597L85.7514 58.7385C85.7429 59.4767 85.43 60.1784 84.8868 60.6785L34.3831 107.153C31.4104 110.126 31.4104 114.946 34.3831 117.919C37.3559 120.892 42.1761 120.892 45.1489 117.919L91.5431 67.5041C92.0549 66.9477 92.7785 66.6337 93.535 66.6392L100.695 66.6949C100.75 66.6949 100.802 66.6964 100.857 66.6964C104.025 66.6964 107.276 65.2602 109.798 62.7401L126.133 46.4045C127.18 45.358 127.18 43.6626 126.133 42.6164Z" fill="white"/>
<path d="M79.0084 66.087L57.6619 85.7309L62.4361 90.5051C63.9015 91.9705 65.7088 92.947 67.6647 93.4515L86.2152 73.2932L79.0084 66.087Z" fill="#FAF0C3"/>
<path d="M38.3235 32.9783L112.718 107.373C115.691 110.346 115.691 115.166 112.718 118.139C109.745 121.112 104.925 121.112 101.953 118.139L83.8901 100.076C82.0403 98.2266 81.629 95.4826 82.657 93.2355C83.1984 92.052 83.1094 90.6826 82.1888 89.7621L79.1437 86.717C77.9546 85.5278 76.0265 85.5278 74.8374 86.717C72.4591 89.0953 68.603 89.0953 66.2247 86.717L45.6691 66.1614C30.4087 50.901 31.848 39.2833 33.9559 33.8411C34.645 32.0622 36.9747 31.6292 38.3235 32.9783Z" fill="white"/>
</svg>
