<svg width="150" height="150" viewBox="0 0 150 150" fill="none" xmlns="http://www.w3.org/2000/svg">
<path d="M146.707 76.6467C146.707 113.157 120.032 143.438 85.1078 149.063C80.3251 128.781 62.2227 114.451 41.3844 114.451H10.479C3.82665 103.41 0 90.4755 0 76.6467C0 36.1734 32.779 3.3557 73.238 3.29342C113.67 3.23145 146.707 36.215 146.707 76.6467Z" fill="#6DC54A"/>
<path d="M65.353 116.481L48.1575 78.2542C47.1402 75.9922 48.1488 73.3335 50.4108 72.3162L107.751 46.5231C110.013 45.5057 112.672 46.5144 113.689 48.7764L130.884 87.003C131.902 89.265 130.893 91.9237 128.631 92.941L71.2911 118.734C69.0291 119.752 66.3704 118.743 65.353 116.481Z" fill="#97D57E"/>
<path d="M70.3796 122.293L60.7078 81.5078C60.1353 79.0943 61.6278 76.6739 64.0413 76.1018L125.219 61.5937C127.632 61.0213 130.053 62.5138 130.625 64.9272L140.297 105.712C140.869 108.126 139.377 110.546 136.963 111.118L75.7856 125.626C73.3724 126.198 70.9521 124.706 70.3796 122.293Z" fill="#C0E6B1"/>
<path d="M31.1377 0C28.6575 0 26.6467 2.01078 26.6467 4.49102V123.329C26.6467 127.213 21.8769 129.048 19.2533 126.184C15.9557 122.585 13.0126 118.655 10.479 114.451V26.9461H9.58082C8.25806 26.9461 7.18561 25.8737 7.18561 24.5509V14.3713C7.18561 13.0485 8.25806 11.976 9.58082 11.976H10.479V4.49102C10.479 2.01078 12.4898 0 14.97 0H31.1377Z" fill="#453D83"/>
<path d="M85.3294 26.9461V32.9341H85.6288C86.9515 32.9341 88.024 34.0066 88.024 35.3293V45.509C88.024 46.8317 86.9515 47.9042 85.6288 47.9042H85.3294V148.802C85.2494 148.897 85.1877 148.969 85.1078 149.063C81.2806 149.68 77.3542 150 73.3533 150C54.7596 150 37.7815 143.082 24.853 131.679C23.1458 130.173 22.1557 128.015 22.1557 125.739V4.49102C22.1557 2.01078 24.1665 0 26.6467 0H80.8383C83.3186 0 85.3294 2.01078 85.3294 4.49102V11.976H85.6288C86.9515 11.976 88.024 13.0485 88.024 14.3713V24.5509C88.024 25.8737 86.9515 26.9461 85.6288 26.9461H85.3294Z" fill="#5F55AF"/>
<path d="M76.6467 32.9341V127.246C76.6467 129.726 74.6359 131.737 72.1557 131.737H24.9183C22.8976 129.959 20.9758 128.071 19.1617 126.084V32.9341C19.1617 30.4539 21.1725 28.4431 23.6527 28.4431H72.1557C74.6359 28.4431 76.6467 30.4539 76.6467 32.9341Z" fill="#FFF5F5"/>
<path d="M19.1617 32.9341V19.4611C19.1617 16.9808 21.1725 14.9701 23.6527 14.9701H72.1557C74.6359 14.9701 76.6467 16.9808 76.6467 19.4611V32.9341H19.1617Z" fill="#FFC14F"/>
<path d="M56.1377 9.73055H48.3533C47.1132 9.73055 46.1078 8.72516 46.1078 7.48504C46.1078 6.24492 47.1132 5.23953 48.3533 5.23953H56.1377C57.3779 5.23953 58.3833 6.24492 58.3833 7.48504C58.3833 8.72516 57.3779 9.73055 56.1377 9.73055ZM41.9162 7.48504C41.9162 6.24492 40.9108 5.23953 39.6707 5.23953C38.4306 5.23953 37.4252 6.24492 37.4252 7.48504C37.4252 8.72516 38.4306 9.73055 39.6707 9.73055C40.9108 9.73055 41.9162 8.72516 41.9162 7.48504ZM52.0958 137.725H43.1138C40.9398 137.725 39.1267 139.269 38.712 141.321C42.7785 143.504 47.0746 145.314 51.5545 146.707H52.0958C54.5761 146.707 56.5868 144.696 56.5868 142.216C56.5868 139.735 54.5761 137.725 52.0958 137.725Z" fill="#19305C"/>
<path d="M54.1916 26.3473H29.0419C27.7192 26.3473 26.6467 25.2748 26.6467 23.9521C26.6467 22.6293 27.7192 21.5569 29.0419 21.5569H54.1916C55.5144 21.5569 56.5868 22.6293 56.5868 23.9521C56.5868 25.2748 55.5144 26.3473 54.1916 26.3473Z" fill="#F29500"/>
<path d="M64.0719 68.8623H31.1377C28.6575 68.8623 26.6467 66.8515 26.6467 64.3713V46.4072C26.6467 43.9269 28.6575 41.9162 31.1377 41.9162H64.0719C66.5521 41.9162 68.5629 43.9269 68.5629 46.4072V64.3713C68.5629 66.8515 66.5521 68.8623 64.0719 68.8623Z" fill="#F44545"/>
<path d="M38.6228 48.503C38.6228 49.8258 37.5503 50.8982 36.2276 50.8982H32.036C30.7132 50.8982 29.6407 49.8258 29.6407 48.503C29.6407 47.1802 30.7132 46.1078 32.036 46.1078H36.2276C37.5503 46.1078 38.6228 47.1802 38.6228 48.503ZM48.2036 46.1078H44.012C42.6892 46.1078 41.6168 47.1802 41.6168 48.503C41.6168 49.8258 42.6892 50.8982 44.012 50.8982H48.2036C49.5264 50.8982 50.5988 49.8258 50.5988 48.503C50.5988 47.1802 49.5264 46.1078 48.2036 46.1078ZM63.1737 46.1078H55.988C54.6653 46.1078 53.5928 47.1802 53.5928 48.503C53.5928 49.8258 54.6653 50.8982 55.988 50.8982H63.1737C64.4964 50.8982 65.5689 49.8258 65.5689 48.503C65.5689 47.1802 64.4964 46.1078 63.1737 46.1078Z" fill="#C50048"/>
<path d="M45.2096 105.689H29.0419C27.7192 105.689 26.6467 104.616 26.6467 103.293C26.6467 101.971 27.7192 100.898 29.0419 100.898H45.2096C46.5323 100.898 47.6048 101.971 47.6048 103.293C47.6048 104.616 46.5323 105.689 45.2096 105.689ZM76.6467 80.8383H19.1617V95.8084H76.6467V80.8383ZM76.6467 125.748H19.1617V110.778H76.6467V125.748Z" fill="#C8E2FD"/>
<path d="M54.1916 90.7186H29.0419C27.7192 90.7186 26.6467 89.6461 26.6467 88.3233C26.6467 87.0006 27.7192 85.9281 29.0419 85.9281H54.1916C55.5144 85.9281 56.5868 87.0006 56.5868 88.3233C56.5868 89.6461 55.5144 90.7186 54.1916 90.7186ZM53.5928 118.263C53.5928 116.941 52.5204 115.868 51.1976 115.868H29.0419C27.7192 115.868 26.6467 116.941 26.6467 118.263C26.6467 119.586 27.7192 120.659 29.0419 120.659H51.1976C52.5204 120.659 53.5928 119.586 53.5928 118.263Z" fill="#86BEFB"/>
<path d="M137.425 144.311H71.5569C66.5961 144.311 62.5748 140.29 62.5748 135.329V89.2216C62.5748 84.2608 66.5961 80.2395 71.5569 80.2395H137.425C142.386 80.2395 146.407 84.2608 146.407 89.2216V135.329C146.407 140.29 142.386 144.311 137.425 144.311Z" fill="#FFC14F"/>
<path d="M81.8584 144.311H71.5569C66.5961 144.311 62.5748 140.29 62.5748 135.329V89.2216C62.5748 84.2611 66.5961 80.2395 71.5569 80.2395H81.8584C76.8976 80.2395 72.8763 84.2611 72.8763 89.2216V135.329C72.8763 140.29 76.8976 144.311 81.8584 144.311Z" fill="#FFA90B"/>
<path d="M150 112.275C150 117.236 145.979 121.257 141.018 121.257H110.479C105.518 121.257 101.497 117.236 101.497 112.275C101.497 107.315 105.518 103.293 110.479 103.293H141.018C145.979 103.293 150 107.315 150 112.275Z" fill="#F44545"/>
<path d="M119.461 121.257H110.479C105.518 121.257 101.497 117.236 101.497 112.275C101.497 107.315 105.518 103.293 110.479 103.293H119.461C114.5 103.293 110.479 107.315 110.479 112.275C110.479 117.236 114.5 121.257 119.461 121.257Z" fill="#C50048"/>
<path d="M50.5988 61.3773C50.5988 63.8575 48.588 65.8683 46.1078 65.8683C43.6275 65.8683 41.6168 63.8575 41.6168 61.3773C41.6168 58.897 43.6275 56.8862 46.1078 56.8862C48.588 56.8862 50.5988 58.897 50.5988 61.3773Z" fill="#FFE7C0"/>
<path d="M38.6228 61.3772C38.6228 63.8575 36.612 65.8683 34.1318 65.8683C31.6515 65.8683 29.6407 63.8575 29.6407 61.3772C29.6407 58.897 31.6515 56.8862 34.1318 56.8862C36.612 56.8862 38.6228 58.897 38.6228 61.3772ZM146.407 112.275C146.407 114.756 144.396 116.766 141.916 116.766C139.436 116.766 137.425 114.756 137.425 112.275C137.425 109.795 139.436 107.784 141.916 107.784C144.396 107.784 146.407 109.795 146.407 112.275Z" fill="#FFF36C"/>
</svg>