<svg width="150" height="150" viewBox="0 0 150 150" fill="none" xmlns="http://www.w3.org/2000/svg">
<path d="M149.998 38.7952C149.986 34.6319 146.69 31.2207 142.53 31.0652C142.271 30.5247 142.012 29.9687 141.736 29.4411C145.184 26.9267 145.941 22.0929 143.426 18.6446C140.912 15.1962 136.078 14.4392 132.63 16.9539C132.466 17.0732 132.307 17.1986 132.154 17.3305C131.794 17.0046 131.448 16.6658 131.078 16.3529C131.611 15.2919 131.891 14.1214 131.895 12.934C131.905 8.6578 128.446 5.1833 124.17 5.1736C121.662 5.1681 119.307 6.37713 117.85 8.41858C116.5 7.88939 115.12 7.42129 113.712 7.0143C113.326 2.77203 109.575 -0.353664 105.333 0.0323196C102.278 0.310331 99.6782 2.37214 98.7123 5.28383C97.5718 5.33556 96.4365 5.4028 95.3192 5.54245C94.0873 1.4505 89.7716 -0.868309 85.6794 0.363671C82.4143 1.34641 80.1773 4.3512 80.1721 7.76137C80.1825 8.48938 80.2963 9.2122 80.5109 9.90788L80.3997 9.96219C77.3228 6.98003 72.4111 7.05632 69.4289 10.1332C68.0292 11.5772 67.2449 13.5088 67.2413 15.5198C67.2413 15.6879 67.2801 15.8457 67.2905 16.0112C66.4477 15.6941 65.5555 15.5279 64.6552 15.5198C60.3845 15.5053 56.9109 18.9555 56.8964 23.2263C56.8928 24.2332 57.0865 25.2315 57.4657 26.1645C53.3508 27.2523 50.8968 31.4703 51.985 35.5852C52.5277 37.6376 53.8929 39.3755 55.7588 40.3883C54.812 44.0936 54.3254 47.9018 54.3106 51.726H147.412C147.394 49.4693 147.213 47.2171 146.869 44.9865C148.834 43.5344 149.994 41.2379 149.998 38.7952Z" fill="#FFD884"/>
<path d="M138.658 150H63.0647L51.7244 51.726H149.998L138.658 150Z" fill="#E3472C"/>
<path d="M93.1029 150L90.5168 51.726H69.8275L77.586 150H93.1029Z" fill="#F6F6E7"/>
<path d="M92.534 128.413L93.103 150H108.62L108.902 139.317C103.117 136.201 97.6375 132.551 92.534 128.413Z" fill="#DD1C4B"/>
<path d="M56.5114 71.4739L51.7244 51.726L63.0647 150H77.586L74.3843 109.441C65.9341 98.1162 59.855 85.2029 56.5114 71.4739Z" fill="#DD1C4B"/>
<path d="M124.439 146.16L124.137 150H138.658C133.835 149.052 129.084 147.769 124.439 146.16Z" fill="#DD1C4B"/>
<path d="M74.3843 109.441L77.586 150H93.1029L92.534 128.413C85.7169 122.871 79.6197 116.497 74.3843 109.441Z" fill="#FFD884"/>
<path d="M131.895 51.726H111.206L108.902 139.317C113.888 142.013 119.084 144.301 124.439 146.16L131.895 51.726Z" fill="#F6F6E7"/>
<path d="M108.902 139.317L108.62 150H124.137L124.439 146.16C119.084 144.301 113.888 142.013 108.902 139.317Z" fill="#FFD884"/>
<path d="M54.3106 72.4153L48.3417 150H8.55631L2.58746 72.4153" fill="#E3472C"/>
<path d="M2.58746 72.4153L8.55631 150H18.1044V72.4153H2.58746Z" fill="#DD1C4B"/>
<path d="M0.00128174 62.0707H56.8967V72.4153H0.00128174V62.0707Z" fill="#F6F6E7"/>
<path d="M0.00128174 62.0707H10.3459V72.4153H0.00128174V62.0707Z" fill="#FFD884"/>
<path d="M42.0341 100.219C38.3938 99.0062 34.3878 99.6921 31.3584 102.047L23.7939 107.926C19.1935 111.503 12.6421 111.065 8.55888 106.907L4.93826 103.26L6.35806 121.695L19.5009 123.233C23.4477 123.806 27.4084 122.288 29.9619 119.225C33.0356 115.536 38.0812 114.15 42.6082 115.752L50.7572 118.633L51.9701 102.857L42.0341 100.219Z" fill="#F6F6E7"/>
<path d="M33.6213 62.0707L25.8628 28.4506H0.00128174V38.7953H18.1044L23.2767 62.0707H33.6213Z" fill="#2BB3CE"/>
<path d="M20.6905 33.623L27.2542 62.0707H33.6213L25.8628 28.4506H0.00128174V33.623H20.6905Z" fill="#88D0EF"/>
<path d="M18.1044 110.259C14.5765 110.677 11.0542 109.435 8.56923 106.897L4.94861 103.25L6.36841 121.684L18.1044 123.068V110.259Z" fill="#FFD884"/>
</svg>